<svg xmlns="http://www.w3.org/2000/svg" width="330.26" height="220.14" viewBox="0 0 330.26 220.14">
  <defs>
    <style>
      .a {
        fill: #00544c;
      }

      .b {
        fill: #ec008c;
      }

      .c {
        fill: #fff;
      }

      .d {
        fill: #2d001a;
      }
    </style>
  </defs>
  <title>caidan</title>
  <g>
    <g>
      <path class="a" d="M520,397c-27.46-18.95-63.46-25.3-85.87-17.22l-1.1.41-.48-1.78A35.28,35.28,0,0,0,457.42,355a35.11,35.11,0,0,0,62.15-22.35,15.33,15.33,0,0,1,5.59,2.65c4.56,3.59,6.77,10.61,6.77,21.47A72.31,72.31,0,0,1,520,397Z" transform="translate(-235.07 -306.82)"/>
      <path class="a" d="M433,380.2l-1.07.43c-10.58,4.45-16.78,12.11-17.88,22a40.08,40.08,0,0,0-16.34,3.7c-8,3.79-13.07,8.87-16.25,14.19a35.17,35.17,0,0,0-43.26,5.1,35.21,35.21,0,0,0-34.41-28h0a35.25,35.25,0,0,0-25.53,11c-13.88-14.7-21.12-32.29-21.12-51.84,0-10.86,2.21-17.88,6.77-21.47a14.35,14.35,0,0,1,3.51-2,35.15,35.15,0,0,0,61.91,22,35.17,35.17,0,0,0,64,6.14,35.1,35.1,0,0,0,38.25,17.11l.94-.22Z" transform="translate(-235.07 -306.82)"/>
      <path class="b" d="M555.28,488.86A39.35,39.35,0,0,1,545,507a37.49,37.49,0,0,1-11.73,7.85,46.38,46.38,0,0,1-32,1.67c-12.73-3.86-24.2-12.8-34.07-26.53-22.54-31.37-54.64-54.28-56-55.25a4.24,4.24,0,0,0-4.9,6.92s.5.36,1.31,1c1.5,1.12,4.22,3.18,7.74,6-6.84.62-13.8.94-20.84.94-2.81,0-5.62-.06-8.4-.15a40.44,40.44,0,0,1-1.08-12.59c.86-10.44,6.33-18.11,16.27-22.82a34.36,34.36,0,0,1,17.75-2.76h0c22.08,1.87,45.24,19.12,45.54,19.34a4.24,4.24,0,0,0,5.11-6.76,128.75,128.75,0,0,0-32.56-17.2,76.25,76.25,0,0,0-14.64-3.53c1-7.06,5.81-12.21,14.43-15.32,8.22-3,18.72-3.65,30-2.21q2.63.33,5.31.82l.12,0a9.09,9.09,0,0,0,1.07.2h0c21,4.08,43.53,15.14,58.51,32.23,0,0,0,0,0,0q1.75,2,3.34,4.07C559.49,454.55,558.2,477.81,555.28,488.86Z" transform="translate(-235.07 -306.82)"/>
      <path class="c" d="M330.46,432.8a26.86,26.86,0,0,1-.87,6.79,142.16,142.16,0,0,1-32.88-15.64,110.22,110.22,0,0,1-12.35-9.41,26.8,26.8,0,0,1,9-6.28,26.64,26.64,0,0,1,36.92,21.44A27.05,27.05,0,0,1,330.46,432.8Z" transform="translate(-235.07 -306.82)"/>
      <path class="c" d="M376.47,439.52a50,50,0,0,0,.89,9.38,202.34,202.34,0,0,1-39.63-6.81,26.36,26.36,0,0,1,4.42-8.22,26.69,26.69,0,0,1,35.87-5.5,39.34,39.34,0,0,0-1.45,8.06C376.51,437.49,376.47,438.51,376.47,439.52Z" transform="translate(-235.07 -306.82)"/>
      <path class="c" d="M511.1,332.61a26.36,26.36,0,0,1-.64,5.82,26.71,26.71,0,0,1-51,3.61c4.47-1,8.77-2.09,12.88-3.09,15.37-3.75,28.7-7,38.72-7.14C511.08,332.07,511.1,332.35,511.1,332.61Z" transform="translate(-235.07 -306.82)"/>
      <path class="c" d="M450.62,344.33a26.66,26.66,0,0,1-50,12.86,26.15,26.15,0,0,1-2.53-6.36c18.6-.35,36.46-3.32,52.54-6.8C450.61,344.13,450.62,344.24,450.62,344.33Z" transform="translate(-235.07 -306.82)"/>
      <path class="c" d="M388.57,350.78a26.67,26.67,0,0,1-51.26,1.78,26.42,26.42,0,0,1-1.31-8.23c0-.28,0-.55,0-.83C352,347,369.9,350.2,388.57,350.78Z" transform="translate(-235.07 -306.82)"/>
      <path class="c" d="M327.65,341.58a.38.38,0,0,1,0,.09,26.68,26.68,0,0,1-25.09,17.6,26.65,26.65,0,0,1-26.68-26.67c0-.26,0-.52,0-.77,10.23-.32,24.36,3.11,40.82,7.12C320.23,339.8,323.89,340.7,327.65,341.58Z" transform="translate(-235.07 -306.82)"/>
      <path class="d" d="M556.85,340.07a4.23,4.23,0,0,1-4,4.47h-.25a4.24,4.24,0,0,1-4.23-4c-1.42-24.77-31.77-25.16-33.07-25.17a4.24,4.24,0,0,1,0-8.47,58.63,58.63,0,0,1,19.6,3.95C548.49,316.28,556.07,326.38,556.85,340.07Z" transform="translate(-235.07 -306.82)"/>
      <path class="d" d="M394.17,342.4h.36c27.81,0,53.32-6.21,75.82-11.69,17.62-4.29,32.79-8,44.6-7.25a3.68,3.68,0,0,1,.6.05c5.83.44,10.82,2,14.85,5.16,6.75,5.3,10,14.49,10,28.13a80.61,80.61,0,0,1-13.64,45.29,93,93,0,0,1,15.34,15.7c19.5,25.55,27.09,51.56,21.37,73.23-3.86,14.62-13.4,25.83-26.86,31.57A55,55,0,0,1,515.12,527c-17.7,0-37.82-8.47-54.79-32.07-11.19-15.57-25.1-29.17-36-38.75A235.39,235.39,0,0,1,394.53,458c-39.59,0-76-9.59-102.48-27a112.38,112.38,0,0,1-16.3-12.94,3.46,3.46,0,0,1-.37-.37c-17.36-16.88-26.72-37.95-26.72-60.9,0-13.64,3.27-22.83,10-28.13a25.2,25.2,0,0,1,12.6-4.93,3.23,3.23,0,0,1,.59-.07c12.09-1.42,28.09,2.47,46.86,7,4.57,1.11,9.27,2.25,14.08,3.37.13,0,.25,0,.39,0a2.07,2.07,0,0,1,.25.08c.09,0,.19,0,.28,0a4.5,4.5,0,0,1,.88.28c17.87,4.08,37.34,7.68,58.11,7.88l.09,0H393a4.22,4.22,0,0,1,.86,0A3.3,3.3,0,0,1,394.17,342.4ZM555.28,488.86c2.92-11.05,4.21-34.3-19.91-65.93-23.81-31.2-72.44-44.54-98.4-35.18-8.62,3.11-13.45,8.26-14.43,15.32,23.58,3.09,45.94,19.77,47.21,20.72a4.24,4.24,0,0,1-5.11,6.76c-.38-.28-38.21-28.47-63.3-16.59-9.94,4.71-15.42,12.38-16.27,22.82a40.44,40.44,0,0,0,1.08,12.59c2.78.09,5.59.15,8.4.15,7,0,14-.32,20.84-.94-5.43-4.4-8.95-6.91-9.05-7a4.24,4.24,0,0,1,4.9-6.92c1.36,1,33.45,23.88,56,55.25,9.87,13.74,21.34,22.67,34.07,26.53a46.38,46.38,0,0,0,32-1.67C544.29,510.11,552.1,500.89,555.28,488.86Zm-23.34-132c0-10.86-2.21-17.88-6.77-21.47a15.33,15.33,0,0,0-5.59-2.65A35.11,35.11,0,0,1,457.42,355a35.28,35.28,0,0,1-24.92,23.38,34.82,34.82,0,0,1-8.57,1.06,35.28,35.28,0,0,1-30.63-17.95,35.12,35.12,0,0,1-64-6.14,35.15,35.15,0,0,1-61.91-22,14.35,14.35,0,0,0-3.51,2c-4.56,3.59-6.77,10.61-6.77,21.47,0,19.55,7.24,37.14,21.12,51.84a35.25,35.25,0,0,1,25.53-11h0a35.21,35.21,0,0,1,34.41,28,35.16,35.16,0,0,1,43.26-5.1c3.18-5.32,8.26-10.4,16.25-14.19a40.08,40.08,0,0,1,16.34-3.7c1.14-10.2,7.72-18,18.95-22.41l1.1-.41c22.41-8.08,58.42-1.73,85.87,17.22A72.31,72.31,0,0,0,531.94,356.81ZM511.1,332.61c0-.26,0-.54,0-.8-10,.16-23.36,3.4-38.72,7.14-4.11,1-8.41,2-12.88,3.09a26.68,26.68,0,0,0,51.63-9.43Zm-60.48,11.72c0-.09,0-.2,0-.3-16.08,3.47-33.93,6.45-52.54,6.8a26.67,26.67,0,0,0,52.54-6.5ZM362.68,371a26.78,26.78,0,0,0,25.88-20.23C369.9,350.2,352,347,336,343.5c0,.28,0,.55,0,.83A26.71,26.71,0,0,0,362.68,371Zm13.9,65.42a39.34,39.34,0,0,1,1.45-8.06,26.68,26.68,0,0,0-40.3,13.72,202.34,202.34,0,0,0,39.63,6.81A48.64,48.64,0,0,1,376.58,436.43Zm-47,3.15a26.67,26.67,0,0,0-45.23-25.05,110.22,110.22,0,0,0,12.35,9.41A142.16,142.16,0,0,0,329.59,439.59Zm-1.95-97.91a.38.38,0,0,0,0-.09c-3.76-.89-7.42-1.78-10.92-2.63-16.47-4-30.59-7.44-40.82-7.12,0,.25,0,.51,0,.77a26.68,26.68,0,0,0,51.77,9.07Z" transform="translate(-235.07 -306.82)"/>
      <path class="d" d="M277.06,306.93a4.24,4.24,0,1,1-.93,8.42c-1.18-.12-28.47-2.67-32.63,25.58a4.25,4.25,0,0,1-4.19,3.62,4,4,0,0,1-.62,0,4.24,4.24,0,0,1-3.58-4.81C240.48,303.27,276.7,306.9,277.06,306.93Z" transform="translate(-235.07 -306.82)"/>
    </g>
    <path class="d" d="M431.92,380.64c-10.58,4.45-16.78,12.11-17.88,22a40.08,40.08,0,0,0-16.34,3.7c-8,3.79-13.07,8.87-16.25,14.19A35.13,35.13,0,0,0,356,416,61.34,61.34,0,0,1,352.4,396a89.75,89.75,0,0,1,1.48-17.59A35.06,35.06,0,0,0,388,368.62c-.68,7.61-7.46,16-7.46,25.76,0,11.3,12.11,10.9,12.11,10.9s12.11.4,12.11-10.9c0-10.31-7.52-19-7.52-27a2.24,2.24,0,0,1,0-.23,35,35,0,0,0,34.27,11.46C431.7,379.29,431.81,380,431.92,380.64Z" transform="translate(-235.07 -306.82)"/>
  </g>
</svg>
