<?xml version="1.0" standalone="no"?><!DOCTYPE svg PUBLIC "-//W3C//DTD SVG 1.1//EN" "http://www.w3.org/Graphics/SVG/1.1/DTD/svg11.dtd"><svg t="1506307982170" class="icon" style="" viewBox="0 0 1176 1024" version="1.1" xmlns="http://www.w3.org/2000/svg" p-id="2741" xmlns:xlink="http://www.w3.org/1999/xlink" width="34.453125" height="30"><defs><style type="text/css"></style></defs><path d="M841.481928 0c-98.396696 0-196.453271 43.777651-259.601534 116.276004C518.768105 43.777651 432.354175 0 333.921504 0 149.791122 0 0 146.893543 0 327.429749c0 293.836141 273.549815 478.116962 454.547148 600.06385 45.609078 30.705839 74.620847 49.203254 104.057769 73.234195l23.275477 23.272207 23.272207-23.272207c29.410758-24.027671 70.094605-42.525085 115.693872-73.260358 181.020226-121.920725 454.547148-306.221168 454.547148-600.037686C1175.39035 146.893543 1025.595958 0 841.481928 0L841.481928 0zM841.481928 0" p-id="2742" fill="#707070"></path></svg>