<svg xmlns="http://www.w3.org/2000/svg" viewBox="0 0 346.37 60"><defs><style>.a{fill:#fff;}.b{fill:#db0000;}.c{fill:red;}</style></defs><title>logozi</title><path class="a" d="M642.14,463.23v-4.52q8.49-2.49,14.09-11.16a33.93,33.93,0,0,0,4.54-11.76H642.27v-4.43h18.86v-7h4.43v7h18.77v4.43h-18.4a24.4,24.4,0,0,0,2.24,7.4,29.79,29.79,0,0,0,8.7,11.62,22.09,22.09,0,0,0,7.67,3.9v4.5q-4.82-.37-10-4.43A36.13,36.13,0,0,1,667,450.7,54.28,54.28,0,0,1,663.3,444q-1.46,3.15-2.26,4.59a34.56,34.56,0,0,1-10.14,11.12A22.72,22.72,0,0,1,642.14,463.23Z" transform="translate(-571.9 -411.5)"/><path class="a" d="M689.34,428.6v-4.29h41.91v4.29h-2.88v28.51a5.81,5.81,0,0,1-1.39,4,6.16,6.16,0,0,1-4.86,2h-7.24V458.8h6.21q3.06,0,3.06-2.74V428.6Zm1.35,23v-14q0-4.57,4.63-4.57h17a7.24,7.24,0,0,1,3.95.82,3.36,3.36,0,0,1,1.48,3v15.29a4.56,4.56,0,0,1-1,3.17,3.73,3.73,0,0,1-2.19,1.19,10.45,10.45,0,0,1-1.44.09H695.24q-3.08,0-4.11-2.12A7.26,7.26,0,0,1,690.69,451.56Zm5.91.82h14.88a2.64,2.64,0,0,0,1.51-.32q.5-.36.5-1.67V438.78a1.47,1.47,0,0,0-.48-1.3,3.29,3.29,0,0,0-1.67-.27H696.7q-1.71,0-1.71,1.37v12.26q0,1.07.41,1.35A2.54,2.54,0,0,0,696.6,452.39Z" transform="translate(-571.9 -411.5)"/><path class="a" d="M735.92,462.8l.07-4.31a7.36,7.36,0,0,0,2.37-2q2-2.67,3-8.17h4.36a26,26,0,0,1-3.15,9.5,11.46,11.46,0,0,1-3.65,3.81A10.63,10.63,0,0,1,735.92,462.8Zm41.18-38.17v4.29H759.64v11.73H777.9v4.22H759.64v10a9.8,9.8,0,0,1-.94,4.86,5.83,5.83,0,0,1-5.3,2.94h-3.79v-4.22h3.29a2.19,2.19,0,0,0,2-1.05,3.31,3.31,0,0,0,.43-1.76v-10.8H742.51A6,6,0,0,1,737,442a4.72,4.72,0,0,1-.68-1.92q0-.11,0-1.46v-8.24a5.36,5.36,0,0,1,1.62-4,4.81,4.81,0,0,1,1.94-1.32,9.15,9.15,0,0,1,3-.41Zm-21.78,16V428.92h-12.1a2.81,2.81,0,0,0-2.08.73,2.28,2.28,0,0,0-.64,1.69v6.48a2.4,2.4,0,0,0,2.63,2.83Zm12.9,7.67h4.34a27.15,27.15,0,0,0,1.55,5.66A14.31,14.31,0,0,0,776,457a6.31,6.31,0,0,0,2,1.46v4.29a10.45,10.45,0,0,1-4.84-2.65,16.49,16.49,0,0,1-3.79-6.76A39.14,39.14,0,0,1,768.22,448.32Z" transform="translate(-571.9 -411.5)"/><path class="a" d="M824.88,463q-8.1-.18-12.4-1.58a18.9,18.9,0,0,1-6.19-3.26,22.67,22.67,0,0,1-2.4-2.37,20.66,20.66,0,0,1-4.34,3.7,23.81,23.81,0,0,1-9,3,75.69,75.69,0,0,1-8,.55v-3.56a55.91,55.91,0,0,0,7.4-.75q6.3-1.3,9.25-4A8.83,8.83,0,0,0,802,449.6h3.95q.77,5,7.3,7.76a32,32,0,0,0,11.67,2.19Zm-42.21-33.86V425.4h9.11v3.72Zm.27,15.11v-3.72h9v3.72ZM823,456.18l-4.45,0,0-5.75a1.27,1.27,0,0,0-.39-1,1.46,1.46,0,0,0-1-.39H790.54a1.41,1.41,0,0,0-1.6,1.6v5.57l-4.47,0,0-7.3a3.35,3.35,0,0,1,1-2.6,4.71,4.71,0,0,1,3.29-1.12l29.52,0q4.66,0,4.66,3.61Zm-29.79-22.1v-4a6.39,6.39,0,0,0,2.72-1.78,9.62,9.62,0,0,0,1.51-4.22h4.43l-.27,1.37h16.69q3.38,0,4.86,1.46a4.39,4.39,0,0,1,1.32,3.26,7,7,0,0,1-1.71,3.93h-5.3q.91-1.16,1.39-1.74,1.37-1.6,1.37-2.12,0-.77-1.64-.78H800.09a10.24,10.24,0,0,1-2.88,3.11A11.24,11.24,0,0,1,793.22,434.08Zm.91,10.3v-4.09a26,26,0,0,0,4.61-1,11,11,0,0,0,6.09-5.07,35.15,35.15,0,0,0,1.78-3.74h5.07l-1.23,2.88H813a12.59,12.59,0,0,0,2.72,3.56q3.15,2.63,9,3.33v4.13a24.33,24.33,0,0,1-8.29-1.76,14.51,14.51,0,0,1-5.07-3.54,33.49,33.49,0,0,1-2.26-3,22.08,22.08,0,0,1-3,3.9,14.82,14.82,0,0,1-6.42,3.52A30.53,30.53,0,0,1,794.13,444.37Z" transform="translate(-571.9 -411.5)"/><path class="a" d="M829.29,429.15v-4.22h9.18v4.22Zm0,15.68v-4.16h9.18v4.16Zm0,17.62v-4.22h9.18v4.22Zm10.32.57v-4.29h.21a1.46,1.46,0,0,0,1.21-.43q.52-.62.52-3.58V430.63a6.54,6.54,0,0,1,1.26-4.36,5.72,5.72,0,0,1,4.54-2.08h24v4.22H849a3.48,3.48,0,0,0-2.51.73,3.81,3.81,0,0,0-.71,2.65v23.29Q845.77,462.64,839.6,463Zm8,.11V458.8a1,1,0,0,0,.94-.68q.16-.43.84-6.8l.07-.66h4.2l-.16,1.64a69.3,69.3,0,0,1-1,7.21,4.43,4.43,0,0,1-2.33,2.88A9.17,9.17,0,0,1,847.62,463.14Zm3.95-31.85v-1.71h4.2v1.71h11a4.52,4.52,0,0,1,3.4,1.16,4.36,4.36,0,0,1,1.14,3.15v8.56a5.17,5.17,0,0,1-1.14,3.63,2.7,2.7,0,0,1-1.21.84,9.85,9.85,0,0,1-2.6.25h-4.5V458q0,4.82-4.59,5l-2.08.07v-4.29l1.28,0a.78.78,0,0,0,.8-.64,8.32,8.32,0,0,0,.14-1.78v-7.35l-5.41,0a4.08,4.08,0,0,1-3.24-1.21,5.82,5.82,0,0,1-.94-3.72v-8a5.33,5.33,0,0,1,.53-2.72A4,4,0,0,1,851.57,431.29Zm.57,6.6H867l0-.78a1.47,1.47,0,0,0-.3-1,1.72,1.72,0,0,0-1.48-.59H853.87q-1.74,0-1.74,1.16ZM867,442.11H852.14v1.1a1.33,1.33,0,0,0,1.6,1.6h11.73q1.62,0,1.58-1.89Zm-1.62,8.54h4.25l.62,6.51a2.92,2.92,0,0,0,.41,1.37,1.2,1.2,0,0,0,.8.27l0,4.29q-4.89-.59-5.32-5Z" transform="translate(-571.9 -411.5)"/><path class="a" d="M876.29,462.84V430.08a5.77,5.77,0,0,1,1.67-4.22,6.08,6.08,0,0,1,4.5-1.64h29.27a7,7,0,0,1,4.75,1.48,5.72,5.72,0,0,1,1.8,4.52V457a5.74,5.74,0,0,1-1.55,4.06,5.89,5.89,0,0,1-4.52,1.78h-3.9v-4.2h3.22a2.56,2.56,0,0,0,1.74-.68,2,2,0,0,0,.78-1.55l0-25.2q0-2.81-3-2.81h-27.6q-2.92,0-2.92,2.81v31.64Zm6.3-6.3v-4.91A19.46,19.46,0,0,0,887,446.7a55.17,55.17,0,0,1-2.35-6.19q-1.07-3.58-2.12-7.62h4q1.67,6.46,2.6,9.25,1-2.6,2.67-9.25h4q-.52,1.76-1.69,6.12a36.84,36.84,0,0,1-2.92,7.67,34.07,34.07,0,0,0,4.59,5.09v4.77a24.24,24.24,0,0,1-6.64-6.28,25.71,25.71,0,0,1-3,3.45A30.05,30.05,0,0,1,882.59,456.54Zm15.41,0V451.7a20.63,20.63,0,0,0,4.5-5q-1.78-4.22-2.49-6.55-.62-2-2-7.21h4q1.16,4.77,2.58,9.43l2.69-9.43h4q-.94,3.61-1.6,5.87a63.53,63.53,0,0,1-2.9,7.92,19.64,19.64,0,0,0,4.52,5v4.88A24.06,24.06,0,0,1,907,453a20.07,20.07,0,0,1-2.37-2.79A24.77,24.77,0,0,1,898,456.52Z" transform="translate(-571.9 -411.5)"/><polygon class="b" points="0 60 0 0.24 59.76 60 0 60"/><polygon class="c" points="60 0 0 0 0 60 60 0"/></svg>