<?xml version="1.0" standalone="no"?><!DOCTYPE svg PUBLIC "-//W3C//DTD SVG 1.1//EN" "http://www.w3.org/Graphics/SVG/1.1/DTD/svg11.dtd"><svg t="1506169501447" class="icon" style="" viewBox="0 0 1024 1024" version="1.1" xmlns="http://www.w3.org/2000/svg" p-id="4640" xmlns:xlink="http://www.w3.org/1999/xlink" width="60" height="60"><defs><style type="text/css"></style></defs><path d="M751.929651 661.419981 975.529005 885.019334C1000.52256 910.01289 1000.52256 950.53545 975.529005 975.529005 950.53545 1000.52256 910.01289 1000.52256 885.019334 975.529005L661.419981 751.929651C592.622944 802.27625 507.78265 832 416 832 186.249544 832 0 645.750458 0 416 0 186.249544 186.249544 0 416 0 645.750458 0 832 186.249544 832 416 832 507.78265 802.27625 592.622944 751.929651 661.419981M704 416C704 256.941992 575.058008 128 416 128 256.941992 128 128 256.941992 128 416 128 575.058008 256.941992 704 416 704 575.058008 704 704 575.058008 704 416" p-id="4641" fill="#ffffff"></path></svg>