<?xml version="1.0" standalone="no"?><!DOCTYPE svg PUBLIC "-//W3C//DTD SVG 1.1//EN" "http://www.w3.org/Graphics/SVG/1.1/DTD/svg11.dtd"><svg t="1506869560315" class="icon" style="" viewBox="0 0 1024 1024" version="1.1" xmlns="http://www.w3.org/2000/svg" p-id="5212" xmlns:xlink="http://www.w3.org/1999/xlink" width="30" height="30"><defs><style type="text/css"></style></defs><path d="M996.693333 872.106667L807.253333 450.56c-5.12-13.653333-18.773333-23.893333-32.426666-23.893333s-29.013333 10.24-32.426667 23.893333L552.96 872.106667c-10.24 18.773333 0 42.666667 18.773333 51.2 18.773333 10.24 42.666667 0 51.2-18.773334l47.786667-98.986666H887.466667l47.786666 104.106666c5.12 13.653333 18.773333 23.893333 32.426667 23.893334 5.12 0 10.24 0 13.653333-5.12 15.36-18.773333 25.6-37.546667 15.36-56.32z m-221.866666-317.44l75.093333 165.546666h-146.773333l71.68-165.546666zM424.96 114.346667c-5.12-13.653333-18.773333-23.893333-37.546667-23.893334-13.653333 0-29.013333 10.24-37.546666 23.893334L27.306667 866.986667c-10.24 18.773333 0 42.666667 18.773333 51.2s42.666667 0 51.2-18.773334l98.986667-226.986666H580.266667l5.12-10.24 37.546666-80.213334v-10.24L424.96 114.346667z m-34.133333 114.346666L547.84 597.333333H235.52l155.306667-368.64z" p-id="5213" fill="#707070"></path></svg>