<svg xmlns="http://www.w3.org/2000/svg" xmlns:xlink="http://www.w3.org/1999/xlink" width="500" height="192.17" viewBox="0 0 500 192.17">
  <defs>
    <style>
      .a, .h {
        fill: none;
      }

      .b {
        clip-path: url(#a);
      }

      .c {
        fill: #57a37a;
      }

      .d {
        fill: #2d7e53;
      }

      .e {
        fill: #2f8c5b;
      }

      .f {
        fill: #409367;
      }

      .g {
        fill: #b4c3c6;
      }

      .h {
        stroke: #584038;
        stroke-linecap: round;
        stroke-linejoin: round;
      }

      .i {
        fill: #584038;
      }

      .j {
        fill: #d0dde0;
      }
    </style>
    <clipPath id="a">
      <rect class="a" width="500" height="192.17"/>
    </clipPath>
  </defs>
  <title>tuzzz-01-01</title>
  <g class="b">
    <g>
      <path class="c" d="M511.67,194.12v-81q-241.36-84.15-512,0v81Z"/>
      <g class="b">
        <g>
          <path class="d" d="M170.42,204.62a3.85,3.85,0,0,0-.9-.75,3.05,3.05,0,0,0-2.85-.65,2.81,2.81,0,0,0-1.2.45c0-.07-.07-.1-.1-.1a3,3,0,0,0,.8-1.3,3.3,3.3,0,0,0,.25-2.15,1.21,1.21,0,0,0-1.65-.85,3,3,0,0,0-1.65,1,12.9,12.9,0,0,0-.3-2.45,2.69,2.69,0,0,0-.8-1.25,2.35,2.35,0,0,0-2.45-.8q-.7.2-1.15,2a5.76,5.76,0,0,0,0,.7,5.88,5.88,0,0,0-1-2,1,1,0,0,0-.4-.55,1.83,1.83,0,0,0-.55-.65,1.11,1.11,0,0,0-1.1-.3q-1.35.2-1.1,2.55a3,3,0,0,0-.7-1.1q-.9-1.15-1.65-1.1a.32.32,0,0,0-.25,0,4.83,4.83,0,0,0-.1-1,9.94,9.94,0,0,0-.35-2.35q-.9-2.9-2.7-2.55-.9.2-1.2,1.45,0,.55-.15,1.15l-.4-1.9q-.8-2.7-2-2.45-.45.1-.7.85a4.7,4.7,0,0,1,0,.75q0-.1-.1,0l0,0a7.52,7.52,0,0,0-.45-1.15q-1.05-1.8-2-1.55-.45,0-.5,1.6v.15a3.18,3.18,0,0,0-1.7-1.15,3.59,3.59,0,0,0-1.85-.2,1.22,1.22,0,0,0-.6.25,3.53,3.53,0,0,0,.15-2.85,3.25,3.25,0,0,0-1-1.65,1.75,1.75,0,0,0-2.3.65.51.51,0,0,1-.1.2,5.43,5.43,0,0,0-.2-1.15q-.6-2.15-1.85-1.85-.9.15-1.25,1.75a1.24,1.24,0,0,0-.35-.6q-.8-1.4-1.85-1.2-.45.1-.75.95a3.65,3.65,0,0,0,0,1.6v0q-.45-1.15-3.25-2.4a19.3,19.3,0,0,0-2.2-.75,4.41,4.41,0,0,0,1.55-.95,2,2,0,0,0,.75-2,.94.94,0,0,0-1.25-.75,4.46,4.46,0,0,0-2,1.15,5,5,0,0,0-.1-1.85q-.3-.9-.35-1-.35-.55-1.3-.35t-1.65,1.75a6.08,6.08,0,0,0-.35-1.65,2.62,2.62,0,0,0-1-1.7,1,1,0,0,0-.8-.25q-.4.1-.8,1.45-.3,1.15-.5,2.35l-.55-3q-.35-1.1-1.05-1.2l-.6,0q-1.15.15-1.35,1.7s0,0-.05.1,0-.07,0-.1a1.24,1.24,0,0,0-1.25-.3q-.7,0-1,1.5v.15q-.4-.95-3-1.3a2.49,2.49,0,0,0,.5-2q-.1-.55-.4-.6a1.31,1.31,0,0,0-.9,0,5.45,5.45,0,0,0-2.15,1.4s-.07,0-.1.1a4.89,4.89,0,0,0-.2-1.35,5.85,5.85,0,0,0-.3-.9q-.35-.55-1.4-.3a2.64,2.64,0,0,0-1.9,1.45,8.64,8.64,0,0,0-.5-1.95,1.42,1.42,0,0,0-1.75-.9,2,2,0,0,0-1.25,1,8.71,8.71,0,0,0-1,1.9l-.1.1-.15-1.2a1.83,1.83,0,0,0-1-1.25,1,1,0,0,0-.9-.2,1.64,1.64,0,0,0-1.4,1.9v.1a9.33,9.33,0,0,0-2-1.4,4,4,0,0,0-.85-.4,5.66,5.66,0,0,0,.9-.9,2.32,2.32,0,0,0,.3-2.2,1.16,1.16,0,0,0-.6-.85,1.35,1.35,0,0,0-.6,0,3.91,3.91,0,0,0-2,1.45,9.08,9.08,0,0,0-.8.8,4.45,4.45,0,0,0,.1-1.55q-.45-1.7-1.5-1.45-.8.15-1.1,1.55c-.07-.37-.1-.57-.1-.6q-.3-1-1-.75-.5.1-.7,1.25a5,5,0,0,1,0,.7,1.87,1.87,0,0,0-1.4-.1l-.2,0q-.45-1.6-2.35-1.2a3.34,3.34,0,0,0-1.8,1.4,4.16,4.16,0,0,0,.35-.75,1.56,1.56,0,0,0,.15-1q-.1-.5-1.1-.25a2.3,2.3,0,0,0-1.1.45,2.64,2.64,0,0,1-.65.4,1.9,1.9,0,0,0,.7-2.1q-.2-1-1.45-.8a6,6,0,0,0-1.9,1.8q0-.35,0-1.35a2.6,2.6,0,0,0,0-1.35.94.94,0,0,0-.6-.75q-.3-.2-.45-.1-.7.1-1.55,1.4a1.24,1.24,0,0,1-.25.45,6.69,6.69,0,0,0-.05-1.95,1.5,1.5,0,0,0-2-1.25q-.6.1-1.2,2.1a.3.3,0,0,0-.2-.2q-1-1.15-1.8-1-.65.1-1.45,1.75a1.59,1.59,0,0,0-2-.75q-.75.1-1.45,1.4-.1-.9-.65-1.1a2.32,2.32,0,0,0-1-.45,2,2,0,0,0,.25-.45,2.32,2.32,0,0,0,.45-1.85q0-.4-.9-.25a4.58,4.58,0,0,0-2.35,1,1.88,1.88,0,0,0,.05-1c0-.27-.08-.42-.15-.45a1.21,1.21,0,0,0-1,0,2.42,2.42,0,0,0-1.1.65c0-.07,0-.1,0-.1a2.88,2.88,0,0,0-.25-1,.79.79,0,0,0-1-.3q-.6.1-1.25,1.2a4.14,4.14,0,0,1-.1-.7,1.12,1.12,0,0,0-1.35-.75,1.14,1.14,0,0,0-.9.9,3.92,3.92,0,0,0-.15,1.2q-.55-1.8-1.7-1.6-.55.1-.8.9s0,.23,0,.7a1.83,1.83,0,0,0-1.1-1.4,3,3,0,0,0-2.25-.55q-1,.2-1,1a3.48,3.48,0,0,0-1.85-.1,1.52,1.52,0,0,0-.9.5l-.45.45c0-.17.07-.45.1-.85a2.9,2.9,0,0,0,0-1.4q-.15-.65-.9-.45-1,.2-1.8,1.9l-.1.15a5.88,5.88,0,0,0,0-1.9q0-.5-.35-.6a.8.8,0,0,0-.65-.05q-.65.1-.75,2.1a1.89,1.89,0,0,0-1.6-.25,5.17,5.17,0,0,0-1-.9,2.73,2.73,0,0,0-1.85-.6,1.79,1.79,0,0,0-1,1q-.2.45-.5,1.25l-.1.1a3.44,3.44,0,0,0-1.25-2.2,1.84,1.84,0,0,0-1.45-.4,1.16,1.16,0,0,0-.65.55l0,0q-.4-1.85-1.55-1.6a2.58,2.58,0,0,0-1.3.6v-.25a1.18,1.18,0,0,0-1.6-1.1,2.86,2.86,0,0,0-1.35.95,2.39,2.39,0,0,0,0-1.1q0-.6-.3-.65a1.53,1.53,0,0,0-.85.05,3.6,3.6,0,0,0-1.85,1.55q-.5.7-1.1,1.7L11,155.32q-.3-1.25-1.15-1.1a2.35,2.35,0,0,0-1.35,1.25l-.8,2-.2.3q0-2.7-2-2.25-1.5.3-1.8,3l-.15.1a6.06,6.06,0,0,0-.75-1.8,1.23,1.23,0,0,0-1.2-.35q-.35.1-.65.8a4.93,4.93,0,0,1-.8,1.3v-.15a2.79,2.79,0,0,0-.7-1.4,2,2,0,0,0-2-.85h-.1v0q-.2-1.05-1.7-.75a4.25,4.25,0,0,0-2.3,1.8q-.55.8-1.3,2a3.31,3.31,0,0,0-.85-2.55,2.13,2.13,0,0,0-2.2-1.05q-1,.15-1.5,1.5a3.8,3.8,0,0,0-.35,1.3,10.51,10.51,0,0,0-.6-2.45q-.75-1.35-1.55-1.2-.6.1-.9,1.4,0,.2-.1.55a5.56,5.56,0,0,0-.85-1q-1.25-1.45-2.4-1.25a1.07,1.07,0,0,0-.55.3l16.8,92.75,186.5-33.8a.8.8,0,0,0,0-.25q-.1-.65-1.2-.5a5.82,5.82,0,0,0-1.55.3l-2.6.8h-.1a4.94,4.94,0,0,0,1.4-1.35,1.76,1.76,0,0,0,.45-1.55q-.1-.6-1.35-.35a4.49,4.49,0,0,0-1.4.7,1.3,1.3,0,0,0,0-.4,4.14,4.14,0,0,0,.2-2.65q-.55-1.65-1.85-1.35a1.39,1.39,0,0,0-.65.35,11.64,11.64,0,0,0-.2-2q-.75-2.6-2.45-2.2A2.34,2.34,0,0,0,170.42,204.62Z"/>
          <path class="e" d="M172,198.67q1.9-1.45,1.6-2.5-.45-1.55-2.4-1.3a2.48,2.48,0,0,0,.1-.95q-.65-2.3-3.85-1a6.37,6.37,0,0,0-1.85.9,3.39,3.39,0,0,0-.1-.4q-1.15-4.25-2.1-4a1.77,1.77,0,0,0-1.3.8q-1.3-4.7-3.6-4a2.09,2.09,0,0,0-1.65,1.6,5.19,5.19,0,0,1-.35-.85q-1-2.05-1.6-1.85-1.2.15-1,1.8a9,9,0,0,0-1-2.4,2.2,2.2,0,0,0-2.1-1,1.47,1.47,0,0,0-1.2,1.55,3.48,3.48,0,0,0,.15,1.5,12.42,12.42,0,0,0-2-3,4,4,0,0,0-2.15-1.4q1.45-1.25,1.15-2.35-.45-1.6-3.55-1l-2.6.65a12.74,12.74,0,0,0,1.35-1q1-1,.8-1.75-.25-1.1-1.65-.85a6.35,6.35,0,0,0-2.7,1.25q-1.15.65-1.5.8,2.15-1.6,1.85-2.85-.2-.75-.6-.9a2.43,2.43,0,0,0-1.8,0,7.47,7.47,0,0,0-3,1.2,6.44,6.44,0,0,0,.35-2.25q-.5-1.85-2.05-1.5a2.67,2.67,0,0,0-1.9,1c-.07-.23-.12-.42-.15-.55q-.9-3.75-2-3.55-.6.1-1,1a3.68,3.68,0,0,0-.3.85,6.23,6.23,0,0,0-.45-1.4q-.95-2.2-2.45-2a2,2,0,0,0-1.5,1.1,2.59,2.59,0,0,0-.25,1.95,6.26,6.26,0,0,0-2.5-1.3,9.62,9.62,0,0,0-1.55-.4.14.14,0,0,1,.1-.05q1.2-.9,1-1.75-.5-1.95-3.9-1.35a7,7,0,0,0-1.8.65,12.1,12.1,0,0,1-1.5.5l0-.15a10.19,10.19,0,0,1,.7-1.45,2.75,2.75,0,0,0,.3-1.2q-.4-1.55-1.55-1.35a6.58,6.58,0,0,0-1.9.9,12.81,12.81,0,0,0-1.3.6c.1-.17.18-.32.25-.45a3.16,3.16,0,0,0,.75-2.5q-.7-2.75-3.35-.85a7.78,7.78,0,0,0-1.45,1.1,5.47,5.47,0,0,0,0-1,4.36,4.36,0,0,0-.65-1.55,1.66,1.66,0,0,0-1.6-.85,2.31,2.31,0,0,0-1.5.9.86.86,0,0,0-.25.45c-.07-.07-.08-.12,0-.15q-1-2.25-2.2-2a1.72,1.72,0,0,0-1.55,1.25q-1.45-1.95-2.5-1.75a2,2,0,0,0-1.6,1.55,2.24,2.24,0,0,0-2.3-.5,3,3,0,0,0-1.75.8q-.5-.5-1.25-1.15a5.93,5.93,0,0,0-1.6-.8l0,0q.95-.7.75-1.5a1.92,1.92,0,0,0-.5-1,2.83,2.83,0,0,0-2-.1,7,7,0,0,0-2.7,1h0a2,2,0,0,0,.15-.4,2.35,2.35,0,0,0,.3-1s0-.08.1-.15q-.45-2-3.35-.4a4.07,4.07,0,0,0-1.2.7,1.83,1.83,0,0,0,0-.85q-.4-1.75-1.1-1.65a2.23,2.23,0,0,0-2,2,7.7,7.7,0,0,0-.6-1,9.3,9.3,0,0,0-1.15-1.15q-.9-.95-1.65-.75-1.05.1-1.35,1.6l0,0a1.89,1.89,0,0,0-1.75-1,2,2,0,0,0-1.7,1.85.86.86,0,0,0-.1.55,1.11,1.11,0,0,0,0,.35.2.2,0,0,1,0,.15,18,18,0,0,0-1.55-1.35,6.52,6.52,0,0,0-2.2-1,1.79,1.79,0,0,0,.5-1.3,1.13,1.13,0,0,0-.45-.7,1.32,1.32,0,0,0-1.3-.45,3.63,3.63,0,0,0-2,1.15,5.07,5.07,0,0,0-.75.9,1.91,1.91,0,0,0,0-1q-.5-2.05-1.3-1.85a1.86,1.86,0,0,0-1.3,1,2.29,2.29,0,0,0-.3.65,3.77,3.77,0,0,0-.9-1.75,2.44,2.44,0,0,0-2.2-.55q-1.65.25-1.65,1.5a5,5,0,0,0-1.55-1,4.6,4.6,0,0,0-2.5-.6,1.41,1.41,0,0,0-1.1,1,2.27,2.27,0,0,0-.1,1,2.5,2.5,0,0,0-1.9-.8,1.86,1.86,0,0,0-1.2.8,1.25,1.25,0,0,0-.2,1.35,11.36,11.36,0,0,0-.95-1.2,1.82,1.82,0,0,0-1.65-.55,2.84,2.84,0,0,0-.9.3,2,2,0,0,0,.1-1q0-.75-.7-.6a4.52,4.52,0,0,0-1.65.85.36.36,0,0,0-.25.15,11.38,11.38,0,0,1,.1-1.5q-.5-2.45-3.5.1a5.33,5.33,0,0,0-1.1.9,2.26,2.26,0,0,0,0-1q-.2-1.1-1.4-.85a7,7,0,0,0-4.45,3,6.68,6.68,0,0,0-1.5-.9,5.18,5.18,0,0,0-2.5-.1,6.84,6.84,0,0,0-2.75,1.15l-.1.1q.1-.75.15-1.65a4.1,4.1,0,0,0-.3-.8q-.4-.5-1.5-.2a7,7,0,0,0-2,1.05v-.05q-.65-3.4-2.6-1.35a4.78,4.78,0,0,0-1.25,1.45,6.47,6.47,0,0,0-.6-1q-1-1.35-2.1-1.1a1.64,1.64,0,0,0-1.3,1,1.63,1.63,0,0,0-.3,1.1.58.58,0,0,1-.1.15,14.16,14.16,0,0,0-1.6-1.55q-2.2-1.25-3.25.35a3.45,3.45,0,0,0-.6,1.65l-.7-.9q-1-1.45-2.25-.75a1.6,1.6,0,0,0-1,1.85,1.37,1.37,0,0,1-.25-.35q-.85-1-1.3-.9-.65.1-.9,1l-.1-.1a3.4,3.4,0,0,0-1-.7,1.37,1.37,0,0,0-1.8.65,2.28,2.28,0,0,0-.65,1.6,5.35,5.35,0,0,1-.45-.95,1.91,1.91,0,0,0-1.8-.5,7.24,7.24,0,0,0-2.7,1,3.3,3.3,0,0,0-1.4,1.5,11.44,11.44,0,0,0-.5-2.35,1.65,1.65,0,0,0-2.1-.95,4.44,4.44,0,0,0-2.8,1.7l1.05,5.7a1.07,1.07,0,0,1,.55-.3q1.15-.2,2.4,1.25a5.56,5.56,0,0,1,.85,1q0-.35.1-.55.3-1.3.9-1.4.8-.15,1.55,1.2a10.51,10.51,0,0,1,.6,2.45,3.8,3.8,0,0,1,.35-1.3q.5-1.35,1.5-1.5a2.13,2.13,0,0,1,2.2,1.05,3.31,3.31,0,0,1,.85,2.55q.75-1.15,1.3-2a4.25,4.25,0,0,1,2.3-1.8q1.5-.3,1.7.75v0h.1a2,2,0,0,1,2,.85,2.79,2.79,0,0,1,.7,1.4v.15a4.93,4.93,0,0,0,.8-1.3q.3-.7.65-.8a1.23,1.23,0,0,1,1.2.35,6.06,6.06,0,0,1,.75,1.8l.15-.1q.3-2.75,1.8-3,2.05-.45,2,2.25l.2-.3.8-2a2.35,2.35,0,0,1,1.35-1.25q.85-.15,1.15,1.1l.15,1.85q.6-1,1.1-1.7a3.6,3.6,0,0,1,1.85-1.55,1.53,1.53,0,0,1,.85-.05q.25,0,.3.65a2.39,2.39,0,0,1,0,1.1,2.86,2.86,0,0,1,1.35-.95,1.18,1.18,0,0,1,1.6,1.1V156a2.58,2.58,0,0,1,1.3-.6q1.15-.25,1.55,1.6l0,0a1.16,1.16,0,0,1,.65-.55,1.84,1.84,0,0,1,1.45.4,3.44,3.44,0,0,1,1.25,2.2l.1-.1q.3-.8.5-1.25a1.79,1.79,0,0,1,1-1,2.73,2.73,0,0,1,1.85.6,5.17,5.17,0,0,1,1,.9,1.89,1.89,0,0,1,1.6.25q.1-2,.75-2.1a.8.8,0,0,1,.65.05q.3.1.35.6a5.88,5.88,0,0,1,0,1.9l.1-.15q.8-1.7,1.8-1.9.75-.2.9.45a2.9,2.9,0,0,1,0,1.4c0,.4-.07.68-.1.85l.45-.45a1.52,1.52,0,0,1,.9-.5,3.48,3.48,0,0,1,1.85.1q0-.8,1-1a3,3,0,0,1,2.25.55,1.83,1.83,0,0,1,1.1,1.4q0-.7,0-.7.25-.8.8-.9,1.15-.2,1.7,1.6a3.92,3.92,0,0,1,.15-1.2,1.14,1.14,0,0,1,.9-.9,1.12,1.12,0,0,1,1.35.75,4.14,4.14,0,0,0,.1.7q.65-1.1,1.25-1.2a.79.79,0,0,1,1,.3,2.88,2.88,0,0,1,.25,1s0,0,0,.1a2.42,2.42,0,0,1,1.1-.65,1.21,1.21,0,0,1,1,0c.07,0,.12.18.15.45a1.88,1.88,0,0,1-.05,1,4.58,4.58,0,0,1,2.35-1q.85-.15.9.25a2.32,2.32,0,0,1-.45,1.85,2,2,0,0,1-.25.45,2.32,2.32,0,0,1,1,.45q.55.2.65,1.1.7-1.3,1.45-1.4a1.59,1.59,0,0,1,2,.75q.8-1.65,1.45-1.75.85-.2,1.8,1a.3.3,0,0,1,.2.2q.6-2,1.2-2.1a1.5,1.5,0,0,1,2,1.25,6.69,6.69,0,0,1,.05,1.95,1.24,1.24,0,0,0,.25-.45q.85-1.3,1.55-1.4.15-.1.45.1a.94.94,0,0,1,.6.75,2.6,2.6,0,0,1,0,1.35q0,1,0,1.35a6,6,0,0,1,1.9-1.8q1.25-.2,1.45.8a1.9,1.9,0,0,1-.7,2.1,2.64,2.64,0,0,0,.65-.4,2.3,2.3,0,0,1,1.1-.45q1-.25,1.1.25a1.56,1.56,0,0,1-.15,1,4.16,4.16,0,0,1-.35.75,3.34,3.34,0,0,1,1.8-1.4q1.9-.4,2.35,1.2l.2,0a1.87,1.87,0,0,1,1.4.1,5,5,0,0,0,0-.7q.2-1.15.7-1.25.75-.2,1,.75s0,.23.1.6q.3-1.4,1.1-1.55,1-.25,1.5,1.45a4.45,4.45,0,0,1-.1,1.55,9.08,9.08,0,0,1,.8-.8,3.91,3.91,0,0,1,2-1.45,1.35,1.35,0,0,1,.6,0,1.16,1.16,0,0,1,.6.85,2.32,2.32,0,0,1-.3,2.2,5.66,5.66,0,0,1-.9.9,4,4,0,0,1,.85.4,9.33,9.33,0,0,1,2,1.4v-.1a1.64,1.64,0,0,1,1.4-1.9,1,1,0,0,1,.9.2,1.83,1.83,0,0,1,1,1.25l.15,1.2.1-.1a8.71,8.71,0,0,1,1-1.9,2,2,0,0,1,1.25-1,1.42,1.42,0,0,1,1.75.9,8.64,8.64,0,0,1,.5,1.95,2.64,2.64,0,0,1,1.9-1.45q1.05-.25,1.4.3a5.85,5.85,0,0,1,.3.9,4.89,4.89,0,0,1,.2,1.35c0-.07.07-.1.1-.1a5.45,5.45,0,0,1,2.15-1.4,1.31,1.31,0,0,1,.9,0q.3,0,.4.6a2.49,2.49,0,0,1-.5,2q2.65.35,3,1.3v-.15q.3-1.45,1-1.5a1.24,1.24,0,0,1,1.25.3c.07,0,.08.07,0,.1s.08-.1.05-.1q.2-1.55,1.35-1.7l.6,0q.7.1,1.05,1.2l.55,3q.2-1.2.5-2.35.4-1.35.8-1.45a1,1,0,0,1,.8.25,2.62,2.62,0,0,1,1,1.7,6.08,6.08,0,0,1,.35,1.65q.8-1.6,1.65-1.75t1.3.35.35,1a5,5,0,0,1,.1,1.85,4.46,4.46,0,0,1,2-1.15A.94.94,0,0,1,124,177a2,2,0,0,1-.75,2,4.41,4.41,0,0,1-1.55.95,19.3,19.3,0,0,1,2.2.75q2.8,1.25,3.25,2.4v0a3.65,3.65,0,0,1,0-1.6q.3-.85.75-.95,1.05-.2,1.85,1.2a1.24,1.24,0,0,1,.35.6q.35-1.6,1.25-1.75,1.25-.3,1.85,1.85a5.43,5.43,0,0,1,.2,1.15.51.51,0,0,0,.1-.2,1.75,1.75,0,0,1,2.3-.65,3.25,3.25,0,0,1,1,1.65,3.53,3.53,0,0,1-.15,2.85,1.22,1.22,0,0,1,.6-.25,3.59,3.59,0,0,1,1.85.2,3.18,3.18,0,0,1,1.7,1.15v-.15q0-1.55.5-1.6,1-.25,2,1.55a7.52,7.52,0,0,1,.45,1.15l0,0s.07,0,.1,0a4.7,4.7,0,0,0,0-.75q.25-.75.7-.85,1.25-.25,2,2.45l.4,1.9q.1-.6.15-1.15.3-1.25,1.2-1.45,1.8-.35,2.7,2.55a9.94,9.94,0,0,1,.35,2.35,4.83,4.83,0,0,1,.1,1,.32.32,0,0,1,.25,0q.75,0,1.65,1.1a3,3,0,0,1,.7,1.1q-.25-2.35,1.1-2.55a1.11,1.11,0,0,1,1.1.3,1.83,1.83,0,0,1,.55.65,1,1,0,0,1,.4.55,5.88,5.88,0,0,1,1,2,5.76,5.76,0,0,1,0-.7q.45-1.8,1.15-2a2.35,2.35,0,0,1,2.45.8,2.69,2.69,0,0,1,.8,1.25,12.9,12.9,0,0,1,.3,2.45,3,3,0,0,1,1.65-1,1.21,1.21,0,0,1,1.65.85,3.3,3.3,0,0,1-.25,2.15,3,3,0,0,1-.8,1.3s.07,0,.1.1a2.81,2.81,0,0,1,1.2-.45,3.05,3.05,0,0,1,2.85.65,3.85,3.85,0,0,1,.9.75,2.34,2.34,0,0,1,1.55-1.3q1.7-.4,2.45,2.2a11.64,11.64,0,0,1,.2,2,1.39,1.39,0,0,1,.65-.35q1.3-.3,1.85,1.35a4.14,4.14,0,0,1-.2,2.65,1.3,1.3,0,0,1,0,.4,4.49,4.49,0,0,1,1.4-.7q1.25-.25,1.35.35a1.76,1.76,0,0,1-.45,1.55,4.94,4.94,0,0,1-1.4,1.35h.1l2.6-.8a5.82,5.82,0,0,1,1.55-.3q1.1-.15,1.2.5a.8.8,0,0,1,0,.25l1.75-.3a2.84,2.84,0,0,0,0-.9,3.9,3.9,0,0,0-2.55-2.5h.1q1.75-.6,1.45-1.85-.55-1.85-4.25-1.9v0q1.4-1,1.15-1.85a3.6,3.6,0,0,0-2.7-2.25,6,6,0,0,0-2-.3c0-.07,0-.12.15-.15q1.2-1.25,1.15-1.65-.65-2.1-3.75-1.75a13.31,13.31,0,0,0-1.8.35M57.37,151c0,.06,0,.11,0,.15V151Z"/>
        </g>
        <g>
          <path class="d" d="M532.09,127.34q-1.15-.2-1.5.35a3.21,3.21,0,0,0-.25.8q.15.9.3,1.65l-.1-.1a6.37,6.37,0,0,0-2.85-.9,5.08,5.08,0,0,0-2.5.3,7.36,7.36,0,0,0-1.4,1,7,7,0,0,0-4.65-2.65q-1.25-.1-1.35,1a2.39,2.39,0,0,0,.1,1,6.21,6.21,0,0,0-1.2-.8q-3.2-2.3-3.5.2.15.75.25,1.5a.63.63,0,0,0-.3-.15,4.51,4.51,0,0,0-1.7-.7q-.75-.1-.65.65a2.29,2.29,0,0,0,.2,1,3.67,3.67,0,0,0-1-.2,1.68,1.68,0,0,0-1.55.7,14.07,14.07,0,0,0-.85,1.25,1.18,1.18,0,0,0-.3-1.3,1.67,1.67,0,0,0-1.25-.7,2.42,2.42,0,0,0-1.85,1,2.3,2.3,0,0,0-.2-1,1.42,1.42,0,0,0-1.15-.9,7,7,0,0,0-3.95,1.9q-.1-1.25-1.75-1.35a2.23,2.23,0,0,0-2.1.75,3.73,3.73,0,0,0-.75,1.8,5.61,5.61,0,0,0-.35-.6,2,2,0,0,0-1.4-.9q-.85-.1-1.15,2a2.34,2.34,0,0,0,0,1.1,3.69,3.69,0,0,0-.8-.85,3.4,3.4,0,0,0-2.05-1,1.28,1.28,0,0,0-1.25.55,1.12,1.12,0,0,0-.4.75,1.81,1.81,0,0,0,.65,1.25,7.21,7.21,0,0,0-2.15,1.15,11,11,0,0,0-1.4,1.45q0-.1,0-.15a1.12,1.12,0,0,0,0-.35,1.24,1.24,0,0,0-.15-.55,2,2,0,0,0-1.85-1.65,2.05,2.05,0,0,0-1.7,1.1s0,0,0,0q-.45-1.45-1.5-1.5-.75-.1-1.55.9a6.7,6.7,0,0,0-1,1.25,8.7,8.7,0,0,0-.55,1,2.21,2.21,0,0,0-2.1-1.7q-.7,0-1,1.7a1.52,1.52,0,0,0,.05.85,3.36,3.36,0,0,0-1.25-.6q-3-1.3-3.25.7.15,0,.1.1a2.81,2.81,0,0,0,.4,1,2,2,0,0,0,.15.4h0a6.91,6.91,0,0,0-2.75-.85,2.91,2.91,0,0,0-2,.3,2,2,0,0,0-.45,1q-.1.8.9,1.45h0a7.47,7.47,0,0,0-1.55,1q-.65.75-1.15,1.25a3,3,0,0,0-1.8-.65,2.27,2.27,0,0,0-2.25.7,1.88,1.88,0,0,0-1.7-1.4q-1.05-.1-2.35,2a1.73,1.73,0,0,0-1.65-1.15q-1.25-.2-2,2.15.1,0,0,.15a.91.91,0,0,0-.3-.4,2.46,2.46,0,0,0-1.6-.8,1.69,1.69,0,0,0-1.5,1,4.11,4.11,0,0,0-.5,1.6,4,4,0,0,0,0,1,7.33,7.33,0,0,0-1.55-1q-2.75-1.7-3.2,1.15a3.16,3.16,0,0,0,1,2.4,5,5,0,0,1,.3.45q-.45-.2-1.35-.5a6.79,6.79,0,0,0-2-.75q-1.2-.1-1.45,1.5a2.42,2.42,0,0,0,.4,1.2,6.76,6.76,0,0,1,.8,1.3l.1.15a8.7,8.7,0,0,1-1.55-.35,8.36,8.36,0,0,0-1.85-.45q-3.45-.3-3.8,1.65,0,.85,1.15,1.65a.14.14,0,0,1,.1,0,6.67,6.67,0,0,0-1.45.55,6,6,0,0,0-2.4,1.5,2.78,2.78,0,0,0-.4-1.95,2,2,0,0,0-1.6-1q-1.55-.1-2.3,2.15a5.37,5.37,0,0,0-.3,1.45,3,3,0,0,0-.4-.8q-.45-1-1.1-1-1.1-.1-1.65,3.75,0,.2-.1.55a2.77,2.77,0,0,0-2-.85q-1.55-.2-1.9,1.7a6.27,6.27,0,0,0,.55,2.2A7.19,7.19,0,0,0,415,165a2.44,2.44,0,0,0-1.8.2q-.35.15-.5.95-.2,1.25,2.1,2.7l-1.6-.7a6.22,6.22,0,0,0-2.8-1q-1.4-.15-1.55,1-.15.75,1,1.65.6.4,1.45.9l-2.7-.4q-3.1-.3-3.4,1.3-.2,1.1,1.35,2.25a4.11,4.11,0,0,0-2,1.55,12.82,12.82,0,0,0-1.8,3.25,2.86,2.86,0,0,0,0-1.5q-.2-1.35-1.3-1.45a2.16,2.16,0,0,0-2,1.25,7.85,7.85,0,0,0-.8,2.45q0-1.65-1.15-1.7-.65-.15-1.45,2c-.07.23-.17.52-.3.85a2.07,2.07,0,0,0-1.7-1.45q-2.4-.45-3.25,4.4a1.8,1.8,0,0,0-1.4-.7q-.95-.2-1.75,4.1a1.87,1.87,0,0,0,0,.45,6.44,6.44,0,0,0-2-.75q-3.3-1-3.7,1.35a3.18,3.18,0,0,0,.15.9q-1.95,0-2.25,1.55-.2,1.05,1.8,2.35a11.22,11.22,0,0,0-1.8-.2q-3.15-.1-3.6,2,0,.45,1.3,1.55c.1,0,.15.08.15.15a6.76,6.76,0,0,0-2,.5,3.93,3.93,0,0,0-2.45,2.2L554,219.89l10-91.65a3.72,3.72,0,0,0-1.25-1,7,7,0,0,0-2.75-.85,1.94,1.94,0,0,0-1.75.65,7.11,7.11,0,0,1-.35,1,2.43,2.43,0,0,0-.8-1.55,1.42,1.42,0,0,0-1.85-.5,3.12,3.12,0,0,0-1,.8l-.1.1a1.12,1.12,0,0,0-1-.85q-.45,0-1.25,1a1.13,1.13,0,0,1-.2.4,1.61,1.61,0,0,0-1.1-1.8q-1.35-.55-2.2.95a8.93,8.93,0,0,1-.55,1,3.91,3.91,0,0,0-.75-1.55q-1.2-1.55-3.3-.1a13.09,13.09,0,0,0-1.45,1.7.58.58,0,0,1-.1-.15,1.93,1.93,0,0,0-.4-1,1.62,1.62,0,0,0-1.4-.9q-1.15-.15-2,1.3a5.53,5.53,0,0,0-.5,1.1,5,5,0,0,0-1.4-1.35q-2.1-1.9-2.45,1.55l0,.05A8.27,8.27,0,0,0,532.09,127.34Z"/>
          <path class="e" d="M565.14,116.29a1.49,1.49,0,0,1-2.8,1l-.5,0h-.2a1,1,0,0,0-.4.2.79.79,0,0,0-.4.3c-.13.1-.2.17-.2.2a2.68,2.68,0,0,0-.35,1.4,7.35,7.35,0,0,0,0,.8l-.7-.7a2.56,2.56,0,0,0-1.3-.8,4.71,4.71,0,0,0-1.9.45,3.12,3.12,0,0,0-1.1.8,2.41,2.41,0,0,0,.3-.8q.2-1.5-.65-1.6a3.33,3.33,0,0,0-2.5,1,1.29,1.29,0,0,0-.35.2q-.1-1.3-1-1.4a1.71,1.71,0,0,0-1.25.25q-.15-1.2-1-1.3-1.1-.1-2.25,1.45a4.12,4.12,0,0,0-.7,1q-.1-.35-.15-.55-.35-1.25-1-1.3-.8-.1-1.4,1.35a8.94,8.94,0,0,0-.45,2.5,4.87,4.87,0,0,0-.4-1.3,1.93,1.93,0,0,0-1.5-1.35,2.19,2.19,0,0,0-2,1.3,3.58,3.58,0,0,0-.65,2.6q-.75-1.05-1.35-1.8a4.22,4.22,0,0,0-2.3-1.6q-1.4-.15-1.55,1v0H533a1.84,1.84,0,0,0-1.85,1,2.66,2.66,0,0,0-.65,1.45v.15a6,6,0,0,1-.8-1.2q-.35-.7-.65-.75a1.08,1.08,0,0,0-1.1.45,5.74,5.74,0,0,0-.65,1.9l-.1-.1q-.45-2.7-1.9-2.85-2-.25-1.85,2.4l-.2-.25-.85-2a2.13,2.13,0,0,0-1.35-1.15q-.85,0-1,1.2l0,1.9q-.6-.95-1.1-1.6-1-1.3-1.85-1.35a1.53,1.53,0,0,0-.8,0q-.25.1-.3.7a2.48,2.48,0,0,0,0,1.1,2.54,2.54,0,0,0-1.3-.85q-1.3-.15-1.5,1.25v.25a2.37,2.37,0,0,0-1.25-.45q-1.1-.15-1.35,1.75l0,0a1.37,1.37,0,0,0-.7-.5,1.83,1.83,0,0,0-1.3.55,3.59,3.59,0,0,0-1.1,2.3l-.1-.1a7.53,7.53,0,0,0-.55-1.15,1.58,1.58,0,0,0-1-.85,2.55,2.55,0,0,0-1.7.75,3.92,3.92,0,0,0-1,1,1.77,1.77,0,0,0-1.5.4q-.25-1.95-.85-2a.75.75,0,0,0-.6.1.81.81,0,0,0-.3.65,6.67,6.67,0,0,0,.1,1.9l-.1-.15q-.85-1.65-1.8-1.75-.75-.1-.85.55a3.49,3.49,0,0,0,.1,1.4q.1.6.15.85a5.49,5.49,0,0,1-.4-.45,1.63,1.63,0,0,0-1-.4,3,3,0,0,0-1.7.3q-.1-.8-1.05-.9a3,3,0,0,0-2.15.75,1.92,1.92,0,0,0-1,1.5,1.9,1.9,0,0,1,0-.7q-.25-.75-.8-.8-1.1-.1-1.55,1.75a3.43,3.43,0,0,0-.15-1.15,1.05,1.05,0,0,0-1-.8,1,1,0,0,0-1.2.85q0,.2,0,.7-.7-1-1.25-1.05a.78.78,0,0,0-1,.4,4.91,4.91,0,0,0-.2,1s0,0,0,.1a1.9,1.9,0,0,0-1-.55,1.32,1.32,0,0,0-.9.15q-.1,0-.15.45a2.64,2.64,0,0,0,.15,1,4,4,0,0,0-2.3-.8q-.8-.1-.85.35a2.35,2.35,0,0,0,.5,1.8,2.56,2.56,0,0,0,.25.4,2.42,2.42,0,0,0-.9.55,1.25,1.25,0,0,0-.55,1.15q-.75-1.2-1.45-1.25a1.55,1.55,0,0,0-1.8,1q-.85-1.6-1.5-1.6t-1.65,1.1a.32.32,0,0,0-.15.2q-.65-1.9-1.25-2a1.52,1.52,0,0,0-1.85,1.45,8,8,0,0,0,.05,1.95,1.23,1.23,0,0,1-.25-.45q-.9-1.2-1.55-1.25c-.1,0-.23,0-.4.15a.94.94,0,0,0-.55.8,3.52,3.52,0,0,0,.1,1.35q.1,1,.1,1.35-1.25-1.5-1.85-1.6-1.2-.1-1.35.9a1.93,1.93,0,0,0,.8,2.05,4.05,4.05,0,0,1-.65-.35,2.48,2.48,0,0,0-1.1-.35q-1-.15-1,.35a1.39,1.39,0,0,0,.2,1,3.24,3.24,0,0,0,.35.7,2.87,2.87,0,0,0-1.8-1.2q-1.8-.2-2.1,1.4h-.2a2,2,0,0,0-1.35.2q0-.3-.1-.65-.25-1.15-.7-1.2-.75-.1-1,.85s0,.23-.1.6q-.35-1.35-1.1-1.45-1-.1-1.35,1.6a4,4,0,0,0,.15,1.55l-.75-.75a3.87,3.87,0,0,0-2-1.25,1,1,0,0,0-.6,0q-.35.15-.5.9a2.41,2.41,0,0,0,.4,2.15,6.87,6.87,0,0,0,.85.8,7.56,7.56,0,0,0-.75.5,11.4,11.4,0,0,0-1.8,1.55V143a1.54,1.54,0,0,0-.3-1,1.39,1.39,0,0,0-1.15-.7,1,1,0,0,0-.85.3,1.94,1.94,0,0,0-.8,1.35l-.1,1.25-.1-.1a9.91,9.91,0,0,0-1-1.85,1.68,1.68,0,0,0-1.25-.9,1.37,1.37,0,0,0-1.6,1,8.37,8.37,0,0,0-.4,2.05,2.21,2.21,0,0,0-1.85-1.3q-1-.15-1.35.4a7.6,7.6,0,0,0-.2,1,4.72,4.72,0,0,0-.1,1.35c0-.07-.07-.1-.1-.1a4.7,4.7,0,0,0-2.15-1.15,1.27,1.27,0,0,0-.85.05c-.17.07-.28.28-.35.65a2.5,2.5,0,0,0,.55,2q-2.45.6-2.8,1.6v-.15q-.4-1.4-1-1.4a1.13,1.13,0,0,0-1.15.4q-.1,0,0,.1t0-.1q-.25-1.5-1.35-1.55l-.6.1q-.65.2-.9,1.3l-.4,3.1a19.23,19.23,0,0,0-.55-2.3q-.5-1.3-.85-1.35a1,1,0,0,0-.75.35,2.71,2.71,0,0,0-.9,1.75,7.83,7.83,0,0,0-.2,1.7q-.85-1.5-1.65-1.6t-1.25.5a9.37,9.37,0,0,0-.25,1,5.64,5.64,0,0,0,0,1.85,4.47,4.47,0,0,0-2-1,.94.94,0,0,0-1.15.9,1.88,1.88,0,0,0,.8,1.85,3.66,3.66,0,0,0,1.5.8q-.85.35-2.05.95-2.55,1.5-2.95,2.7v0a3.28,3.28,0,0,0-.15-1.55q-.25-.85-.75-.9-1-.1-1.65,1.35a1.32,1.32,0,0,0-.3.65q-.45-1.55-1.3-1.6-1.2-.2-1.65,2a9.76,9.76,0,0,0-.15,1.15c-.07-.07-.1-.12-.1-.15a1.57,1.57,0,0,0-1.1-.7,1.6,1.6,0,0,0-1.1.25,4.48,4.48,0,0,0-.5,4.55,1.6,1.6,0,0,0-.6-.2,4.07,4.07,0,0,0-3.3,1.7.38.38,0,0,1,0-.15q0-1.55-.5-1.55-1-.15-1.85,1.75a6.36,6.36,0,0,0-.4,1.2l0,0s-.07,0-.1.05v-.75q-.25-.7-.7-.75-1.2-.15-1.8,2.6l-.3,2q-.1-.6-.2-1.15-.35-1.2-1.2-1.3-1.75-.2-2.4,2.8a10.15,10.15,0,0,0-.25,2.35,5.52,5.52,0,0,0,0,1,.23.23,0,0,0-.25,0q-.7,0-1.5,1.25a3.6,3.6,0,0,0-.65,1.2q.15-2.4-1.15-2.5a1.23,1.23,0,0,0-1.05.45,1.7,1.7,0,0,0-.45.65,1.35,1.35,0,0,0-.4.6,8.89,8.89,0,0,0-.85,2.1c0-.2-.07-.43-.1-.7q-.5-1.8-1.2-1.9a2.37,2.37,0,0,0-2.3,1,3.35,3.35,0,0,0-.65,1.4,10.16,10.16,0,0,0-.2,2.45,2.71,2.71,0,0,0-1.6-.85,1.21,1.21,0,0,0-1.5,1,3.22,3.22,0,0,0,.35,2.1,3.46,3.46,0,0,0,.8,1.2s-.07,0-.1.1a2.58,2.58,0,0,0-1.15-.3,2.9,2.9,0,0,0-2.65.9,2.78,2.78,0,0,0-.8.85,2.14,2.14,0,0,0-1.55-1.15q-1.65-.25-2.25,2.45a11.66,11.66,0,0,0,0,2,1,1,0,0,0-.65-.3q-1.25-.15-1.65,1.5a4.19,4.19,0,0,0,.3,2.65,1.3,1.3,0,0,0,0,.4,3.75,3.75,0,0,0-1.3-.55q-1.2-.15-1.3.45-.3,1.25,1.9,2.7h-.1l-2.5-.5a5.12,5.12,0,0,0-1.45-.15q-1.05,0-1.15.6a2.29,2.29,0,0,0,.65,2.2,4,4,0,0,0,2.2,1.05h1.35l9.4,1a3.93,3.93,0,0,1,2.45-2.2,6.76,6.76,0,0,1,2-.5c0-.07,0-.12-.15-.15q-1.35-1.1-1.3-1.55.45-2.15,3.6-2a11.22,11.22,0,0,1,1.8.2q-2-1.3-1.8-2.35.3-1.6,2.25-1.55a3.18,3.18,0,0,1-.15-.9q.4-2.35,3.7-1.35a6.44,6.44,0,0,1,2,.75,1.87,1.87,0,0,1,0-.45q.8-4.3,1.75-4.1a1.8,1.8,0,0,1,1.4.7q.85-4.85,3.25-4.4a2.07,2.07,0,0,1,1.7,1.45c.13-.33.23-.62.3-.85q.8-2.15,1.45-2,1.2,0,1.15,1.7a7.85,7.85,0,0,1,.8-2.45,2.16,2.16,0,0,1,2-1.25q1.1.1,1.3,1.45a2.86,2.86,0,0,1,0,1.5,12.82,12.82,0,0,1,1.8-3.25,4.11,4.11,0,0,1,2-1.55q-1.55-1.15-1.35-2.25.3-1.6,3.4-1.3l2.7.4q-.85-.5-1.45-.9-1.1-.9-1-1.65.15-1.15,1.55-1a6.22,6.22,0,0,1,2.8,1l1.6.7q-2.3-1.45-2.1-2.7.15-.8.5-.95a2.44,2.44,0,0,1,1.8-.2,7.19,7.19,0,0,1,3.15.9,6.27,6.27,0,0,1-.55-2.2q.35-1.9,1.9-1.7a2.77,2.77,0,0,1,2,.85q0-.35.1-.55.55-3.85,1.65-3.75.65,0,1.1,1a3,3,0,0,1,.4.8,5.37,5.37,0,0,1,.3-1.45q.75-2.25,2.3-2.15a2,2,0,0,1,1.6,1,2.78,2.78,0,0,1,.4,1.95,6,6,0,0,1,2.4-1.5,6.67,6.67,0,0,1,1.45-.55.14.14,0,0,0-.1,0q-1.2-.8-1.15-1.65.35-1.95,3.8-1.65a8.36,8.36,0,0,1,1.85.45,8.7,8.7,0,0,0,1.55.35l-.1-.15a6.76,6.76,0,0,0-.8-1.3,2.42,2.42,0,0,1-.4-1.2q.25-1.6,1.45-1.5a6.79,6.79,0,0,1,2,.75q.9.3,1.35.5a5,5,0,0,0-.3-.45,3.16,3.16,0,0,1-1-2.4q.45-2.85,3.2-1.15a7.33,7.33,0,0,1,1.55,1,4,4,0,0,1,0-1,4.11,4.11,0,0,1,.5-1.6,1.69,1.69,0,0,1,1.5-1,2.46,2.46,0,0,1,1.6.8.91.91,0,0,1,.3.4q.1-.1,0-.15.8-2.35,2-2.15a1.73,1.73,0,0,1,1.65,1.15q1.3-2.1,2.35-2a1.88,1.88,0,0,1,1.7,1.4,2.27,2.27,0,0,1,2.25-.7,3,3,0,0,1,1.8.65q.5-.5,1.15-1.25a7.47,7.47,0,0,1,1.55-1h0q-1-.65-.9-1.45a2,2,0,0,1,.45-1,2.91,2.91,0,0,1,2-.3,6.91,6.91,0,0,1,2.75.85h0a2,2,0,0,1-.15-.4,2.81,2.81,0,0,1-.4-1s0-.07-.1-.1q.25-2,3.25-.7a3.36,3.36,0,0,1,1.25.6,1.52,1.52,0,0,1-.05-.85q.25-1.75,1-1.7a2.21,2.21,0,0,1,2.1,1.7,8.7,8.7,0,0,1,.55-1,6.7,6.7,0,0,1,1-1.25q.8-1,1.55-.9,1.05,0,1.5,1.5s0,0,0,0a2.05,2.05,0,0,1,1.7-1.1,2,2,0,0,1,1.85,1.65,1.24,1.24,0,0,1,.15.55,1.12,1.12,0,0,1,0,.35s0,.08,0,.15a11,11,0,0,1,1.4-1.45,7.21,7.21,0,0,1,2.15-1.15,1.81,1.81,0,0,1-.65-1.25,1.12,1.12,0,0,1,.4-.75,1.28,1.28,0,0,1,1.25-.55,3.4,3.4,0,0,1,2.05,1,3.69,3.69,0,0,1,.8.85,2.34,2.34,0,0,1,0-1.1q.3-2.05,1.15-2a2,2,0,0,1,1.4.9,5.61,5.61,0,0,1,.35.6,3.73,3.73,0,0,1,.75-1.8,2.23,2.23,0,0,1,2.1-.75q1.65.1,1.75,1.35a7,7,0,0,1,3.95-1.9,1.42,1.42,0,0,1,1.15.9,2.3,2.3,0,0,1,.2,1,2.42,2.42,0,0,1,1.85-1,1.67,1.67,0,0,1,1.25.7,1.18,1.18,0,0,1,.3,1.3,14.07,14.07,0,0,1,.85-1.25,1.68,1.68,0,0,1,1.55-.7,3.67,3.67,0,0,1,1,.2,2.29,2.29,0,0,1-.2-1q-.1-.75.65-.65a4.51,4.51,0,0,1,1.7.7.63.63,0,0,1,.3.15q-.1-.75-.25-1.5.3-2.5,3.5-.2a6.21,6.21,0,0,1,1.2.8,2.39,2.39,0,0,1-.1-1q.1-1.1,1.35-1a7,7,0,0,1,4.65,2.65,7.36,7.36,0,0,1,1.4-1,5.08,5.08,0,0,1,2.5-.3,6.37,6.37,0,0,1,2.85.9l.1.1q-.15-.75-.3-1.65a3.21,3.21,0,0,1,.25-.8q.35-.55,1.5-.35a8.27,8.27,0,0,1,2.15.85l0-.05q.35-3.45,2.45-1.55a5,5,0,0,1,1.4,1.35,5.53,5.53,0,0,1,.5-1.1q.85-1.45,2-1.3a1.62,1.62,0,0,1,1.4.9,1.93,1.93,0,0,1,.4,1,.58.58,0,0,0,.1.15,13.09,13.09,0,0,1,1.45-1.7q2.1-1.45,3.3.1a3.91,3.91,0,0,1,.75,1.55,8.93,8.93,0,0,0,.55-1q.85-1.5,2.2-.95a1.61,1.61,0,0,1,1.1,1.8,1.13,1.13,0,0,0,.2-.4q.8-1.05,1.25-1a1.12,1.12,0,0,1,1,.85l.1-.1a3.12,3.12,0,0,1,1-.8,1.42,1.42,0,0,1,1.85.5,2.43,2.43,0,0,1,.8,1.55,7.11,7.11,0,0,0,.35-1,1.94,1.94,0,0,1,1.75-.65,7,7,0,0,1,2.75.85,3.72,3.72,0,0,1,1.25,1l.85-7.7a.62.62,0,0,0,.15-.35,1.65,1.65,0,0,0,0-.4l.4-3.65A.81.81,0,0,0,565.14,116.29Z"/>
        </g>
      </g>
      <rect class="a" x="6.72" y="-324.83" width="500" height="500"/>
    </g>
  </g>
  <g>
    <path class="f" d="M225.37,105.86c-.09.1-.07.22.05.38a5.91,5.91,0,0,0-.64.27,1.41,1.41,0,0,1-.27.11q-3.12,1.33-3.91,3.21a1.17,1.17,0,0,0-.05.86q.15.63,1.28,1.23a8.6,8.6,0,0,0,3.91.86,5.24,5.24,0,0,1,.8,0,6.53,6.53,0,0,0,.21,2.25.94.94,0,0,0,.21.54,1,1,0,0,0,.16.64,7.59,7.59,0,0,0,.43,1c.06.13.16.34.32.64a19.21,19.21,0,0,0-2.25.43,43.32,43.32,0,0,0-5.83,1.71q-5.64,2.18-7.22,5.88-3.67,8.08,4.66,15.35a26.93,26.93,0,0,0,3.21,2.51.12.12,0,0,0,0,.11,2.43,2.43,0,0,0,.59.27,25.25,25.25,0,0,0-2.14,1.5,56.38,56.38,0,0,0-5.72,4.33,43.07,43.07,0,0,0-12.73,16.48,15.21,15.21,0,0,0-.75,1.71q-2.78,6.79-2.3,11.88a12.31,12.31,0,0,0,2.14,6.26q3.8,5.36,12.14,5.46,12.47.06,20.38-15.46,1.48-2.88,2.57-5.62a64.36,64.36,0,0,0,3.32-10.43q.39-2.08.75-4.12.32-2.84.86-5.4,2.13.27,4.12.43,3.29.32,6.42.43l2.73.11,3.85-.11q1.47-.05,2.94-.16.46,2.29.86,4.81.19,1.08.43,2.14a60.82,60.82,0,0,0,5.67,16.48,18.19,18.19,0,0,0,.86,1.71q8.09,15.84,20.76,15.94.64,0,1.28-.05a23.59,23.59,0,0,0,2.46-.21,13.05,13.05,0,0,0,8.67-5,13.89,13.89,0,0,0,2.09-7.44,28.68,28.68,0,0,0-2.57-10.86l-.05-.16a43.13,43.13,0,0,0-8.51-13.32,35.63,35.63,0,0,0-5.46-5.08q-1.8-1.44-3.42-2.78t-3.37-2.41c-.09-.11-.16-.16-.21-.16q.59-.43,1.07-.75a.83.83,0,0,1,.27-.16,6.24,6.24,0,0,1,1.07-.8l1.39-1.07Q292.07,134.6,288,126q-2.28-4.65-10.49-7-1.3-.39-2.73-.7c-.61-.13-1.23-.23-1.87-.32a7.39,7.39,0,0,1,.43-.8.77.77,0,0,1,.16-.27,4.85,4.85,0,0,1,.27-.75q.2-.82.43-1.55a10.34,10.34,0,0,0,.05-1.82,5.26,5.26,0,0,0,.75,0,9,9,0,0,0,4-.86,2.85,2.85,0,0,0,1.23-1.12,1.61,1.61,0,0,0-.11-1,7.66,7.66,0,0,0-4.07-3.21l-.21-.05a3.15,3.15,0,0,0-.75-.27.62.62,0,0,0,.05-.43q-.29-.71-2.73-1a39.45,39.45,0,0,0-6.15-.21q-3.71.12-4.12.59-2.84-.23-7.33-.32a6.36,6.36,0,0,0-1.28-.54,11.29,11.29,0,0,0-4.28-.64,10.66,10.66,0,0,0-4.23.64,6.12,6.12,0,0,0-1.28.48q-3.57.09-5.4.32-.59-.47-4.17-.54a44.39,44.39,0,0,0-6,.16Q225.56,105.15,225.37,105.86Z"/>
    <g>
      <path class="g" d="M277.75,96a7.22,7.22,0,0,0-1.6-2.57,5.18,5.18,0,0,0-3.85-1.93,3.38,3.38,0,0,0-.64.05,39.18,39.18,0,0,0-.75-4.07q-.3-1.5-.75-3-.2-.69-.43-1.39l-.21-.64q-1.12-3.1-3.69-8.4Q249,77.46,234.36,74a76.72,76.72,0,0,0-3.69,8.4q-.32.94-.59,1.87-.2.67-.37,1.34t-.27,1.07a44.94,44.94,0,0,0-.91,4.87,3.37,3.37,0,0,0-.64-.05A5.18,5.18,0,0,0,224,93.4a7.22,7.22,0,0,0-1.71,2.89,7.9,7.9,0,0,0-.27,2.09,12.82,12.82,0,0,0,2.51,7.92,2.76,2.76,0,0,0,.21.32,4.21,4.21,0,0,0,.59.75,2.38,2.38,0,0,0-.27,1.07q0,1.93,2.41,2.73a16.56,16.56,0,0,0,6.15.59q3.75-.32,4.39-1.55,3.16.86,11.56.86a67.87,67.87,0,0,0,12.57-.86q.59,1.23,4.33,1.55a17,17,0,0,0,6.21-.59q2.3-.8,2.3-2.73a2.85,2.85,0,0,0-.21-1.07c.18-.21.37-.46.59-.75l.21-.27a13,13,0,0,0,2.51-8A7.66,7.66,0,0,0,277.75,96Z"/>
      <path class="h" d="M229.71,85.59q-.14.53-.27,1.07"/>
      <path class="i" d="M222.83,96.43a7.64,7.64,0,0,0-.22,2.46,14.08,14.08,0,0,0,.33,2.52,14.55,14.55,0,0,0,2,4.61.5.5,0,0,1-.8.6,11.21,11.21,0,0,1-2.33-5,15.19,15.19,0,0,1-.32-2.73,8,8,0,0,1,.35-2.78.5.5,0,0,1,1,.29Z"/>
      <path class="i" d="M229.22,85.46a13.06,13.06,0,0,1,.76-3.08c.34-1,.74-2,1.15-3,.85-1.93,1.79-3.81,2.78-5.66h0a.5.5,0,0,1,.56-.25,65.17,65.17,0,0,0,15.6,1.72,80.86,80.86,0,0,0,15.64-1.72h0a.47.47,0,0,1,.52.28c1.22,2.86,2.5,5.68,3.56,8.63.49,1.49.89,3,1.28,4.5s.65,3,1,4.57h0l-.59-.43a5.83,5.83,0,0,1,4.75,2.22,7.65,7.65,0,0,1,2.1,4.7,14.74,14.74,0,0,1-.51,5.2,12.47,12.47,0,0,1-1,2.45,9.23,9.23,0,0,1-.73,1.14,6.85,6.85,0,0,1-.92.92h0l.08-.51a3.36,3.36,0,0,1,0,2.26,3.1,3.1,0,0,1-1.5,1.59,11.09,11.09,0,0,1-4,.92,26,26,0,0,1-4,0,11.85,11.85,0,0,1-2-.31,3.08,3.08,0,0,1-2-1.17l0,0,.55.27a38.91,38.91,0,0,1-6.07.85c-2,.15-4.06.22-6.08.23s-4.05,0-6.08-.12a25.82,25.82,0,0,1-6.09-1h0l.57-.25a3.13,3.13,0,0,1-2,1.21,13.08,13.08,0,0,1-2,.34,24.42,24.42,0,0,1-4.05,0,11.81,11.81,0,0,1-4-1,3.15,3.15,0,0,1-1.54-1.54,3.29,3.29,0,0,1-.24-1.12,3.08,3.08,0,0,1,.21-1.16l0-.05.09.58-.66-.84,0,0-.23-.32A.5.5,0,1,1,225,106l0,0,.19.27,0,0,.52.66.07.09a.43.43,0,0,1,0,.49l0,0a1.9,1.9,0,0,0-.2,1.6,2.42,2.42,0,0,0,1.14,1.31,9.11,9.11,0,0,0,3.75.94,17.85,17.85,0,0,0,3.93-.13,9.88,9.88,0,0,0,1.88-.45,2.19,2.19,0,0,0,1.31-.93.42.42,0,0,1,.47-.27l.1,0h0a45.29,45.29,0,0,0,5.9.5c2,.06,4,.11,6,.11s4,0,6-.1a51.77,51.77,0,0,0,5.94-.53h0a.47.47,0,0,1,.51.28v0c.11.39.72.74,1.29,1a11.26,11.26,0,0,0,1.88.46,17.34,17.34,0,0,0,3.93.1,12.49,12.49,0,0,0,1.93-.31,5.82,5.82,0,0,0,1.77-.69,2.34,2.34,0,0,0,1.09-1.32,2.28,2.28,0,0,0-.19-1.64.33.33,0,0,1,0-.3l.09-.21v0a5.78,5.78,0,0,1,.66-1.08c.22-.32.47-.64.68-1a11.93,11.93,0,0,0,1.1-2.16,13.38,13.38,0,0,0,1-4.82A6.29,6.29,0,0,0,276,93.54a5.54,5.54,0,0,0-2-1.4,3.57,3.57,0,0,0-2.27-.13.46.46,0,0,1-.59-.39v0h0c-.19-1.52-.36-3.05-.67-4.56a43.15,43.15,0,0,0-1.22-4.45,66.31,66.31,0,0,0-3.89-8.39l.55.27h0a81.85,81.85,0,0,1-15.83,1.74,66.19,66.19,0,0,1-15.84-1.75l.56-.26h0c-.86,1.9-1.71,3.8-2.49,5.71-.39,1-.78,1.92-1.09,2.88a20.65,20.65,0,0,1-1,2.92.51.51,0,0,1-.68.24A.51.51,0,0,1,229.22,85.46Z"/>
      <path class="i" d="M229.92,86.78l-.66,3.66c-.1.61-.2,1.22-.25,1.84s-.13,1.23-.21,1.84v0a.5.5,0,0,1-1-.08,34.81,34.81,0,0,1,.31-3.81,22.82,22.82,0,0,1,.82-3.72.5.5,0,0,1,1,.24Z"/>
      <path class="i" d="M228.43,92a3.38,3.38,0,0,0-1.87,0,4.65,4.65,0,0,0-1.69,1,6.18,6.18,0,0,0-2,3.37.5.5,0,0,1-1-.18l0-.08h0a8.55,8.55,0,0,1,1.06-2,10.27,10.27,0,0,1,1.49-1.62,6.39,6.39,0,0,1,1.91-1.17,5.43,5.43,0,0,1,2.3-.35.51.51,0,0,1,0,1l-.11,0Z"/>
      <path class="i" d="M272.14,91.45c.05.45.13.91.16,1.36l.11,1.37a.5.5,0,0,1-1,.1v-.06l-.16-1.3c-.05-.43-.07-.87-.1-1.31v-.06a.5.5,0,0,1,1-.1Z"/>
      <path class="i" d="M270,104.73c-.3.45-.59.9-.87,1.36v0a9.62,9.62,0,0,1-3,2.93,15.44,15.44,0,0,1-3.85,1.63.5.5,0,1,1-.27-1h.05a10.85,10.85,0,0,0,3.69-1.29,7.14,7.14,0,0,0,2.71-2.71v0c.26-.5.5-1,.74-1.52a.5.5,0,0,1,.91.42l0,.07Z"/>
      <path class="i" d="M275.17,107.7c-.61.43-1.14.91-1.72,1.35a17.32,17.32,0,0,1-1.84,1.24h0a.51.51,0,1,1-.52-.87.52.52,0,0,1,.16-.06,4.69,4.69,0,0,0,1.81-.84,4.64,4.64,0,0,0,1.38-1.49.51.51,0,1,1,.75.67Z"/>
      <path class="i" d="M234.33,108.18a5.35,5.35,0,0,0,1.78,1.05,7.78,7.78,0,0,0,2,.47.5.5,0,1,1-.08,1l-.11,0c-.72-.23-1.43-.44-2.13-.72a21.27,21.27,0,0,1-2.07-1h0a.51.51,0,1,1,.46-.9Z"/>
      <path class="i" d="M225.74,107a6.12,6.12,0,0,0,1.41,1.48,4.43,4.43,0,0,0,1.82.85.51.51,0,1,1-.35.94h0a21.81,21.81,0,0,1-1.89-1.21c-.6-.43-1.15-.91-1.73-1.38a.51.51,0,1,1,.63-.79A.55.55,0,0,1,225.74,107Z"/>
    </g>
    <g>
      <g>
        <path class="g" d="M255.33,106.93l-.05-.05q-2-2.25-6.1-2.25a6.43,6.43,0,0,0-4.81,2.57,11.18,11.18,0,0,0-1.34,1.87,6.19,6.19,0,0,0,1.77,3.53,5.87,5.87,0,0,0,4.39,1.82,6,6,0,0,0,4.39-1.82,6.07,6.07,0,0,0,1.87-4.44A6.83,6.83,0,0,0,255.33,106.93Z"/>
        <path class="j" d="M249.18,102a6,6,0,0,0-4.39,1.76,6.16,6.16,0,0,0-1.82,4.44,7.58,7.58,0,0,0,.05.91,11.18,11.18,0,0,1,1.34-1.87,6.43,6.43,0,0,1,4.81-2.57q4.06,0,6.1,2.25l.05.05a6.18,6.18,0,0,0-1.76-3.21A6.08,6.08,0,0,0,249.18,102Z"/>
      </g>
      <path class="i" d="M242.65,109.12a6.64,6.64,0,0,1,1.32-4.85,6.36,6.36,0,0,1,4.29-2.51,6.6,6.6,0,0,1,4.87,1.14,6.71,6.71,0,0,1,1.55,9.38,6.85,6.85,0,0,1-4.5,2.77,7.26,7.26,0,0,1-2.69-.15,6,6,0,0,1-2.4-1.25A7,7,0,0,1,242.65,109.12Zm.75-.1a5.72,5.72,0,0,0,2.41,3.71,5.88,5.88,0,0,0,4.18.94,5.78,5.78,0,0,0,4.89-6.32,5.58,5.58,0,0,0-2.15-3.9,6,6,0,0,0-4.4-1.19,5.66,5.66,0,0,0-2.22.73,5.86,5.86,0,0,0-1.71,1.6A6,6,0,0,0,243.4,109Z"/>
    </g>
    <g>
      <path class="g" d="M270.15,46.32q-.48-.53-1-1.07t-.86-.86l-.16-.16q-.4-.39-.8-.75a.62.62,0,0,0,.11-.16q.79-1.18,1.5-2.35t1.55-2.62a28.4,28.4,0,0,0,2-4.44,29.42,29.42,0,0,0,1.66-9.84V24q0-7.11-3-10.59a7.74,7.74,0,0,0-5.94-2.62q-5.24,0-7.7,8.29-.15.49-.32,1a57.12,57.12,0,0,0-1.87,11.45q0,.82-.05,1.66-.05,2.09-.16,4.17l-1.71-.21q-1.12-.05-2.25-.05-.8,0-1.55.05-1.76.07-3.69.32-1.2.18-2.46.43-.16-2.3-.21-4.71,0-1.67-.21-3.32a50.57,50.57,0,0,0-1.07-7.33q-.39-1.74-.91-3.42-2.46-8.29-7.76-8.29a7.68,7.68,0,0,0-5.88,2.62q-3.1,3.48-3.1,10.59v1.12a28.73,28.73,0,0,0,3.69,13.27q1.2,2.16,2.57,4.23.52.78,1.07,1.55a.78.78,0,0,0-.37.27.22.22,0,0,1-.11.05q-1.3,1.3-2.46,2.62a30.11,30.11,0,0,0-7.38,20.12A13.45,13.45,0,0,0,224.95,77a16.29,16.29,0,0,0,4.44,3.21,39.45,39.45,0,0,0,8.24,3q1.09.31,2.19.54l.38.11q.61.13,1.18.21a34.68,34.68,0,0,0,4.44.53,34,34,0,0,0,6.26-.05q3.64-.31,6.63-.8,2-.28,3.69-.64,1.23-.25,2.35-.59a29.2,29.2,0,0,0,5.62-2.25,15.37,15.37,0,0,0,2-1.28q5.83-4.13,5.83-11.77A30.12,30.12,0,0,0,270.15,46.32Z"/>
      <path class="i" d="M273.66,24.07a21,21,0,0,0-1.33-7.43,9.58,9.58,0,0,0-2-3,7.06,7.06,0,0,0-3-1.83,6.85,6.85,0,0,0-3.48-.13A5.64,5.64,0,0,0,261,13.47a19.1,19.1,0,0,0-3.34,6.7.5.5,0,0,1-1-.28,17.17,17.17,0,0,1,3.24-7.35,7,7,0,0,1,3.59-2.32,8.24,8.24,0,0,1,4.24.18,8.47,8.47,0,0,1,3.59,2.21,10.69,10.69,0,0,1,2.18,3.53,20.62,20.62,0,0,1,1.13,7.92.5.5,0,0,1-1,0Z"/>
      <path class="i" d="M274.66,24.07a34.42,34.42,0,0,1-1.94,10.29,30.93,30.93,0,0,1-2.23,4.75l-1.29,2.27-1.37,2.22,0-.06a2.41,2.41,0,0,1-.19.28h0l0-.73a44.92,44.92,0,0,1,7.8,10.35A30.59,30.59,0,0,1,278.81,66a17.36,17.36,0,0,1-.74,6.59,13.62,13.62,0,0,1-3.64,5.62,25.08,25.08,0,0,1-11.9,5.36.5.5,0,0,1-.21-1,26.07,26.07,0,0,0,11.19-5.36,12.28,12.28,0,0,0,3.29-5.07,17.23,17.23,0,0,0,.8-6.12,29.55,29.55,0,0,0-2.74-12.28A27.81,27.81,0,0,0,267,43.86l0-.73h0a0,0,0,0,1,0,0l0-.06,1.45-2.13c.47-.72.89-1.47,1.34-2.21a26.33,26.33,0,0,0,2.25-4.6,25.54,25.54,0,0,0,1.62-10,.5.5,0,1,1,1,0S274.66,24.05,274.66,24.07Z"/>
      <path class="i" d="M258.78,84.24c-2.18.1-4.33.34-6.48.58a63.54,63.54,0,0,1-6.53.28.5.5,0,1,1,0-1h.08a25.5,25.5,0,0,0,6.4.13c2.13-.28,4.27-.56,6.38-1h0a.5.5,0,1,1,.2,1Z"/>
      <path class="i" d="M237.53,83.69a38.6,38.6,0,0,1-6.12-1.91,20.42,20.42,0,0,1-5.6-3.26,13.7,13.7,0,0,1-3.74-5.29,16.53,16.53,0,0,1-1.13-6.32A29.81,29.81,0,0,1,230.86,44l-.08.09a1.25,1.25,0,0,1,.6-.45h0l-.22.75c-.82-1.25-1.56-2.54-2.31-3.82a43,43,0,0,1-2.21-3.89A28.49,28.49,0,0,1,224,28.13a29.63,29.63,0,0,1,0-9,17.86,17.86,0,0,1,.55-2.24c.13-.37.26-.73.41-1.09a3.57,3.57,0,0,0,.22-.55c0-.23.16-.36.25-.54a9.24,9.24,0,0,1,3.37-3.32,9.33,9.33,0,0,1,4.56-1.21,6.38,6.38,0,0,1,4.53,1.66c2.37,2.31,3.29,5.38,3.92,8.26a60.58,60.58,0,0,1,1.45,8.82c.21,3,.36,5.93.6,8.86v0l-.59-.46a25.63,25.63,0,0,1,2.89-.65c1-.14,2-.23,3-.34a19.65,19.65,0,0,1,3,0c.5.05,1,.07,1.49.15s1,.18,1.46.3h0l-.57.47.3-4.34c.08-1.46.22-2.91.39-4.37s.39-2.89.67-4.33.59-2.86.77-4.33a.51.51,0,1,1,1,.13.52.52,0,0,1,0,.14,18.42,18.42,0,0,0-1.21,4.16q-.39,2.13-.61,4.29c-.3,2.87-.26,5.77-.28,8.69a.47.47,0,0,1-.47.47H255c-1,0-1.92-.05-2.87,0a27.12,27.12,0,0,0-2.84.11c-1,.07-1.91.16-2.87.2s-1.91.2-2.88.23h-.12a.46.46,0,0,1-.48-.45v-.05c0-3-.09-5.94-.35-8.86a39.27,39.27,0,0,0-.65-4.35c-.15-.72-.3-1.43-.49-2.14l-.64-2.1a22.41,22.41,0,0,0-1.54-4A10.87,10.87,0,0,0,236.85,13a5.71,5.71,0,0,0-3.49-1.61,6.84,6.84,0,0,0-2,.18,6.34,6.34,0,0,0-1.85.84,8.22,8.22,0,0,0-2.63,3.07,11,11,0,0,0-1.52,3.9,28.3,28.3,0,0,0,2,17,32.41,32.41,0,0,0,2.15,3.83l1.18,1.86c.4.62.87,1.18,1.3,1.78a.5.5,0,0,1-.11.69l-.08,0h0a.31.31,0,0,0-.13.08h0l-.08.09a49.78,49.78,0,0,0-4.08,4.7,34.12,34.12,0,0,0-3.15,5.35,29.82,29.82,0,0,0-2.75,12.1A13.9,13.9,0,0,0,222.67,73a12.6,12.6,0,0,0,3.83,4.71,22.88,22.88,0,0,0,5.37,3,54.55,54.55,0,0,0,5.9,2.05.5.5,0,0,1-.25,1Z"/>
      <path class="i" d="M255.56,37.29c-.07.55-.13,1.1-.16,1.65s-.09,1.1-.09,1.66c0,1.1,0,2.21,0,3.31v0c0,.56.09,1.13.13,1.69v-.05c.12.55.15,1.1.26,1.66l-.11-.32h0a3.85,3.85,0,0,0,1.3,1.43,5.66,5.66,0,0,0,1.84.78,8.85,8.85,0,0,0,4,0h0l-.35.18a14.28,14.28,0,0,0,1.7-1.78l0,0h0a6.93,6.93,0,0,0,.77-1l.75-1a24.12,24.12,0,0,0,1.27-2.19h0a.5.5,0,1,1,.9.45l-.06.1c-.55.67-1.06,1.36-1.58,2l-.79,1c-.27.32-.51.69-.83,1l0,0c-.49.67-1,1.36-1.4,2.07a.37.37,0,0,1-.29.18h-.06a26.78,26.78,0,0,1-4.19-.58,10.29,10.29,0,0,1-2-.73,8.74,8.74,0,0,1-1.83-1.23h0l-.06-.09a.36.36,0,0,1-.06-.23c0-.26,0-.51,0-.77a3.72,3.72,0,0,0,0-.77v-.05c0-.54,0-1.08,0-1.63v0c0-1.11,0-2.21,0-3.32,0-.55,0-1.11-.05-1.66s-.06-1.11-.12-1.66a.5.5,0,1,1,1-.1A.56.56,0,0,1,255.56,37.29Z"/>
      <path class="i" d="M243.82,46.09l-.08,1.12v.08a.28.28,0,0,1-.1.2,9.85,9.85,0,0,1-3.81,1.92,29.18,29.18,0,0,1-4.16.62h0a.39.39,0,0,1-.32-.17c-.32-.48-.67-.93-1-1.4s-.7-.91-1-1.38-.69-.91-1-1.35-.7-.9-1.09-1.33a.51.51,0,1,1,.82-.57v0a12.57,12.57,0,0,0,.84,1.47c.32.46.65.92,1,1.38a17.42,17.42,0,0,0,2.26,2.51l-.34-.17h0a8.56,8.56,0,0,0,4,.08,5.34,5.34,0,0,0,1.84-.79,3.73,3.73,0,0,0,1.27-1.46l-.11.28.08-1.13a.5.5,0,0,1,1,.07Z"/>
      <path class="h" d="M243.46,41.83v2.09q0,.57-.13,2.14"/>
      <path class="h" d="M243.4,37.81q0,2,.05,4"/>
    </g>
  </g>
</svg>
